<?xml version="1.0" standalone="no"?>
<!DOCTYPE svg PUBLIC "-//W3C//DTD SVG 20010904//EN"
 "http://www.w3.org/TR/2001/REC-SVG-20010904/DTD/svg10.dtd">
<svg version="1.0" xmlns="http://www.w3.org/2000/svg"
 width="1500.000000pt" height="1500.000000pt" viewBox="0 0 1500.000000 1500.000000"
 preserveAspectRatio="xMidYMid meet">
<metadata>
Created by potrace 1.11, written by Peter Selinger 2001-2013
</metadata>
<g transform="translate(0.000000,1500.000000) scale(0.100000,-0.100000)"
fill="#000000" stroke="none">
<path d="M4580 12434 c-1471 -833 -2674 -1518 -2673 -1522 1 -9 1874 -1094
1889 -1095 7 0 788 427 1738 949 l1726 949 0 1118 c0 614 -1 1117 -2 1116 -2
0 -1207 -682 -2678 -1515z"/>
<path d="M7720 12832 l0 -1117 1710 -940 c941 -517 1721 -944 1734 -949 21 -8
147 62 953 528 512 295 938 542 947 549 18 13 -42 47 -5101 2908 l-243 138 0
-1117z"/>
<path d="M5877 10441 c-880 -484 -1603 -883 -1608 -888 -5 -5 647 -388 1606
-941 l1615 -932 1615 932 c1236 714 1612 935 1602 944 -22 20 -3204 1764
-3218 1764 -8 0 -733 -396 -1612 -879z"/>
<path d="M1670 7420 c0 -1699 3 -3090 8 -3090 4 1 435 248 957 549 l950 549 0
1992 0 1993 -949 549 c-522 301 -953 548 -957 548 -5 0 -9 -1388 -9 -3090z"/>
<path d="M12340 9961 l-945 -548 0 -1992 0 -1993 950 -549 c523 -302 953 -549
958 -549 4 0 7 1391 7 3090 0 2466 -3 3090 -12 3089 -7 0 -438 -247 -958 -548z"/>
<path d="M4042 7394 l3 -1755 1600 -881 c880 -484 1606 -882 1613 -885 10 -4
12 338 10 1707 l-3 1712 -1609 929 c-885 511 -1610 929 -1612 929 -2 0 -3
-790 -2 -1756z"/>
<path d="M9320 8220 l-1605 -927 -3 -1713 c-2 -1369 0 -1711 10 -1707 7 3 733
401 1613 885 l1600 880 3 1756 c1 966 -1 1756 -5 1755 -5 0 -730 -418 -1613
-929z"/>
<path d="M3025 4584 c-539 -312 -983 -569 -987 -573 -5 -5 5166 -2940 5214
-2959 4 -2 8 516 8 1151 l0 1154 -1607 883 c-885 486 -1617 889 -1628 896 -18
12 -116 -42 -1000 -552z"/>
<path d="M9348 4253 l-1628 -896 0 -1155 0 -1154 63 35 c86 47 5161 2919 5165
2922 2 1 -428 251 -955 555 -526 304 -971 561 -988 571 l-30 17 -1627 -895z"/>
</g>
</svg>
