<?xml version="1.0" standalone="no"?>
<!DOCTYPE svg PUBLIC "-//W3C//DTD SVG 20010904//EN"
 "http://www.w3.org/TR/2001/REC-SVG-20010904/DTD/svg10.dtd">
<svg version="1.0" xmlns="http://www.w3.org/2000/svg"
 width="700.000000pt" height="700.000000pt" viewBox="0 0 700.000000 700.000000"
 preserveAspectRatio="xMidYMid meet">
<metadata>
Created by potrace 1.11, written by Peter Selinger 2001-2013
</metadata>
<g transform="translate(0.000000,700.000000) scale(0.100000,-0.100000)"
fill="#000000" stroke="none">
<path d="M4158 6685 c-2 -2 -25 -6 -53 -9 -75 -10 -169 -43 -275 -97 -84 -43
-133 -75 -245 -161 -16 -13 -79 -72 -141 -133 -165 -164 -288 -317 -439 -549
-42 -64 -78 -116 -81 -116 -3 0 -53 25 -112 56 -264 140 -555 247 -792 293
-146 28 -190 32 -305 32 -179 -1 -296 -27 -414 -93 -63 -35 -68 -39 -123 -95
-185 -191 -231 -513 -134 -948 44 -201 136 -445 253 -673 35 -68 63 -126 63
-130 0 -4 -39 -32 -87 -62 -93 -59 -295 -203 -353 -253 -212 -181 -335 -312
-435 -462 -163 -246 -211 -466 -145 -665 88 -263 413 -484 874 -595 60 -15
119 -29 130 -31 12 -2 32 -6 46 -9 34 -6 75 -12 139 -20 30 -4 63 -9 74 -11
12 -2 73 -6 136 -10 64 -3 135 -7 158 -8 24 -1 45 -4 47 -7 2 -2 7 -67 10
-144 3 -77 8 -151 10 -165 2 -14 7 -52 11 -85 10 -94 15 -122 40 -250 13 -66
28 -132 34 -147 6 -16 9 -28 6 -28 -2 0 14 -53 36 -117 73 -212 169 -380 282
-492 68 -67 97 -89 170 -127 400 -208 1010 170 1482 919 27 42 51 76 54 75 3
-2 51 -26 107 -55 298 -152 629 -264 889 -299 162 -21 376 -8 500 30 350 110
493 474 385 983 -12 54 -23 109 -26 123 -3 13 -28 92 -56 175 -56 166 -108
288 -203 476 l-63 125 121 80 c474 310 804 672 907 993 123 386 -83 695 -590
884 -146 54 -414 116 -580 132 -36 4 -78 9 -95 11 -27 3 -84 7 -260 19 -27 2
-55 4 -60 4 -6 1 -11 25 -11 54 -1 55 -13 230 -20 282 -2 16 -6 50 -9 75 -3
25 -7 56 -10 70 -3 14 -7 41 -10 60 -41 271 -148 572 -268 757 -118 184 -285
306 -447 328 -64 9 -119 13 -122 10z m150 -311 c224 -109 411 -579 448 -1129
13 -193 12 -200 -16 -201 -47 -2 -235 -15 -275 -19 -22 -2 -67 -7 -100 -10
-33 -3 -76 -7 -95 -10 -19 -3 -55 -7 -80 -9 -25 -3 -61 -8 -80 -11 -19 -3 -78
-12 -130 -20 l-95 -14 -36 29 c-199 159 -458 349 -602 441 l-78 50 22 37 c159
263 415 572 574 693 17 13 32 26 35 29 3 3 34 25 69 48 129 85 260 133 346
125 22 -2 64 -15 93 -29z m-2483 -659 c233 -21 512 -113 846 -280 63 -32 115
-58 117 -60 1 -1 -27 -60 -62 -131 -81 -162 -168 -360 -236 -534 -29 -74 -58
-140 -64 -146 -6 -6 -45 -23 -86 -39 -41 -15 -93 -36 -115 -45 -22 -10 -74
-32 -116 -49 -85 -34 -241 -106 -397 -183 -56 -28 -104 -49 -106 -47 -15 16
-134 268 -175 370 -131 329 -185 647 -144 849 39 186 134 274 320 296 32 3 59
7 60 8 3 2 87 -2 158 -9z m1491 -682 c223 -161 217 -154 144 -167 -14 -2 -50
-11 -80 -20 -30 -8 -70 -18 -89 -21 -19 -3 -37 -8 -41 -10 -3 -2 -17 -6 -31
-8 -32 -6 -366 -103 -402 -116 -16 -6 -30 -11 -33 -11 -11 0 77 201 173 397
l74 152 102 -69 c56 -37 138 -95 183 -127z m1949 -278 c50 -3 97 -8 105 -10 8
-2 46 -7 85 -10 38 -4 72 -8 75 -10 3 -2 23 -6 45 -9 384 -58 703 -214 790
-386 105 -208 -103 -564 -526 -902 -104 -83 -227 -170 -315 -223 l-58 -35 -68
106 c-111 172 -347 492 -421 571 -33 35 -33 24 -2 223 9 58 18 121 21 140 2
19 6 51 9 70 2 19 7 64 10 100 3 36 8 76 10 90 2 14 7 77 11 140 6 107 10 152
13 157 0 1 29 0 64 -2 34 -2 103 -7 152 -10z m-504 -7 c1 -7 1 -16 1 -19 -1
-3 -3 -48 -7 -100 -3 -52 -10 -134 -15 -184 -5 -49 -12 -108 -14 -130 -8 -80
-19 -145 -23 -145 -2 0 -32 30 -66 67 -71 77 -266 272 -385 387 -46 43 -81 80
-80 82 5 5 59 14 118 19 30 3 69 7 85 10 17 2 68 7 115 11 47 3 86 7 87 8 1 0
42 2 92 4 69 2 91 0 92 -10z m-927 -125 c148 -124 559 -527 683 -668 33 -38
77 -88 97 -110 19 -22 33 -47 31 -55 -2 -8 -18 -80 -35 -160 -17 -80 -40 -181
-51 -225 -12 -44 -23 -91 -25 -104 -6 -29 -123 -432 -162 -556 l-28 -90 -114
-38 c-313 -103 -882 -252 -1010 -264 -42 -3 -48 0 -91 39 -25 24 -92 86 -150
139 -195 181 -462 454 -612 626 -22 25 -27 50 -16 79 4 11 10 36 13 55 34 207
176 735 264 981 11 31 18 59 15 61 -16 17 772 245 938 272 19 3 68 13 109 23
104 25 109 24 144 -5z m-1528 -429 c-33 -86 -186 -666 -186 -706 0 -23 -11
-23 -31 0 -66 78 -312 423 -325 457 -6 16 95 69 321 170 72 32 148 66 170 76
50 23 59 23 51 3z m-741 -461 c93 -144 392 -540 462 -611 16 -16 16 -20 3 -97
-10 -62 -39 -274 -45 -335 -22 -205 -32 -332 -34 -437 l-1 -41 -67 3 c-98 6
-222 15 -263 20 -71 9 -116 15 -136 19 -12 2 -38 7 -57 10 -228 36 -522 147
-652 245 -159 120 -209 231 -171 379 55 216 276 483 595 721 99 73 293 201
306 201 6 0 33 -35 60 -77z m3394 -317 c100 -133 262 -376 256 -386 -10 -17
-524 -254 -533 -246 -1 2 14 59 34 127 20 68 64 233 98 365 33 133 64 240 68
238 4 -3 39 -47 77 -98z m-2401 -866 c149 -148 266 -270 259 -271 -7 0 -19 -2
-27 -3 -70 -14 -318 -41 -467 -51 l-93 -7 5 104 c3 56 7 121 10 143 2 22 7 76
11 120 3 44 8 87 9 95 2 8 6 43 10 78 4 34 8 62 10 62 1 0 124 -121 273 -270z
m2860 140 c155 -293 269 -633 289 -860 36 -408 -89 -555 -464 -545 -65 1 -129
5 -143 9 -14 3 -43 8 -65 11 -114 16 -368 96 -537 170 -119 52 -287 138 -284
144 14 25 126 262 153 325 19 44 40 94 48 110 18 39 119 299 134 347 10 30 19
38 64 54 28 10 70 26 91 36 22 11 44 19 49 19 5 0 23 6 40 14 18 8 102 44 187
81 85 37 207 94 270 125 63 32 116 57 117 56 0 0 24 -44 51 -96z m-1228 -442
c-39 -104 -83 -203 -156 -356 -58 -121 -65 -132 -83 -123 -71 39 -460 316
-474 338 -4 7 247 76 358 99 25 5 323 94 345 103 14 5 28 10 31 10 4 1 -5 -32
-21 -71z m-973 -295 c148 -119 344 -263 488 -358 66 -43 122 -80 124 -81 2 -2
-11 -24 -28 -49 -17 -25 -31 -48 -31 -51 0 -3 -28 -44 -61 -92 -306 -433 -659
-716 -902 -723 -78 -2 -117 9 -177 50 -105 71 -210 241 -279 451 -35 104 -85
344 -96 455 -4 39 -9 79 -12 90 -2 11 -6 82 -10 158 l-5 137 43 1 c24 1 55 2
69 4 14 1 69 5 123 9 53 4 103 8 110 11 6 2 41 6 77 10 58 5 260 33 365 50 22
4 42 9 44 11 18 17 63 -6 158 -83z"/>
<path d="M3750 3978 c-77 -13 -155 -54 -222 -116 l-28 -26 -27 26 c-84 76
-179 118 -272 118 -197 0 -321 -128 -317 -326 2 -66 8 -90 35 -149 30 -63 58
-94 280 -313 135 -134 256 -251 268 -259 13 -9 33 -13 45 -9 34 8 520 492 552
548 101 180 54 393 -104 473 -56 28 -151 43 -210 33z"/>
</g>
</svg>
